<svg version="1.1" id="Layer_1" xmlns="http://www.w3.org/2000/svg" xmlns:xlink="http://www.w3.org/1999/xlink" x="0px" y="0px"
	 width="100%" viewBox="0 0 1024 1024" enable-background="new 0 0 1024 1024" xml:space="preserve">
<path fill="#000000" opacity="1.000000" stroke="none" 
	d="
M200.381958,493.528503 
	C213.003082,448.573517 233.656586,408.294250 264.757996,372.169006 
	C241.580124,368.942139 221.065735,375.215179 200.804688,383.431641 
	C200.003494,380.018250 201.469177,378.053925 202.424500,376.026184 
	C210.286591,359.338348 221.997711,345.512360 235.077408,332.784393 
	C264.033417,304.606995 298.114594,285.004028 336.469879,272.634155 
	C338.191956,272.078766 339.875092,271.402771 342.390350,270.486359 
	C320.126160,253.716827 294.902924,246.914017 268.717316,243.235001 
	C268.721985,239.878067 271.011566,239.309570 272.539124,238.279266 
	C289.552704,226.804047 308.824615,220.973755 328.511627,216.361664 
	C347.712189,211.863525 367.246399,209.724152 386.954285,209.993393 
	C398.091064,210.145554 409.264374,210.601318 420.300262,212.504425 
	C421.253296,212.668777 422.259277,212.526184 424.235382,211.442993 
	C422.608368,210.170746 420.851685,209.032883 419.373657,207.606262 
	C394.434326,183.533539 371.637756,157.748734 356.106110,126.384819 
	C349.567474,113.180931 344.508301,99.429398 344.716125,84.348419 
	C344.761292,81.071335 344.142273,76.646965 347.276764,75.244308 
	C350.482391,73.809822 352.536407,77.980629 354.640137,80.058830 
	C382.801941,107.879295 416.545319,127.228943 451.872803,144.099121 
	C482.987885,158.957718 514.284485,173.436264 545.506409,188.070923 
	C546.541260,188.556000 547.635864,188.913528 549.778503,189.751007 
	C544.715698,172.233337 534.707031,157.990540 527.676636,142.476471 
	C529.898071,140.857788 531.594604,141.915939 533.265259,142.414352 
	C569.390930,153.191544 599.109192,173.944473 624.568298,201.253647 
	C637.026489,214.617142 647.473816,229.423355 655.517578,245.856033 
	C656.897949,248.676071 659.244690,249.918533 661.840027,251.144424 
	C681.279907,260.326569 696.603394,273.882629 706.233398,293.363617 
	C709.195129,299.355011 711.398438,305.643158 712.346985,312.300751 
	C712.924988,316.357941 714.547913,319.892395 716.983826,323.188141 
	C723.526611,332.040558 731.760986,338.980133 741.024902,344.760712 
	C750.679077,350.784729 761.063904,355.278717 771.689270,359.285553 
	C774.517517,360.352112 776.735352,360.284943 778.857666,357.956482 
	C780.649048,355.991089 782.714050,354.278198 784.586304,352.382812 
	C789.003174,347.911255 790.188477,347.765350 794.143127,352.388611 
	C807.173523,367.622009 816.285461,384.850586 819.378052,404.816315 
	C823.232239,429.698914 817.840271,452.469940 802.637329,472.693787 
	C800.349731,475.736908 797.463562,478.330139 794.853699,481.130920 
	C792.773682,483.362976 790.886047,482.904327 788.888245,480.898010 
	C786.566772,478.566803 784.966736,475.527466 781.798950,473.556183 
	C767.389343,486.738190 752.773010,499.597717 731.807739,499.384735 
	C730.693176,497.435913 731.303101,496.363434 731.925598,495.405060 
	C736.337524,488.612152 734.380371,482.358826 730.277710,476.356262 
	C722.257935,464.622589 711.237610,456.373932 698.749451,450.049683 
	C672.707825,436.861694 644.959839,433.330200 616.168640,435.856628 
	C588.166687,438.313873 561.544739,445.805389 536.055237,457.503876 
	C533.108459,458.856293 530.574341,459.609558 530.012268,454.589111 
	C517.930359,460.686951 507.937317,468.441498 500.208588,478.937042 
	C484.899109,499.727142 480.359467,523.157959 483.053650,548.469543 
	C486.173950,577.784241 500.081665,601.646301 519.634644,622.858337 
	C534.989075,639.515503 550.500366,656.034363 562.738098,675.298218 
	C583.108337,707.363831 593.868652,742.153015 593.040527,780.268066 
	C592.831665,789.883301 591.482117,799.437744 589.728210,809.454834 
	C594.493286,808.774414 598.054382,806.573792 601.655334,804.733093 
	C636.694397,786.822266 664.208801,761.418213 680.531738,724.980347 
	C685.993347,712.788513 688.161133,699.886597 688.656250,686.636719 
	C688.712280,685.139038 688.705750,683.638000 688.806580,682.143799 
	C688.838257,681.674683 689.126587,681.222961 689.716003,679.636963 
	C705.786255,691.242004 715.637146,706.656738 722.288025,726.133118 
	C736.516235,698.158081 741.028687,670.192810 735.588684,640.794373 
	C730.037415,610.794617 711.407532,588.803955 689.758057,569.015320 
	C691.423950,566.917542 693.022583,567.594666 694.356995,567.878235 
	C721.788208,573.707092 746.837402,584.130127 766.208252,605.404114 
	C784.541260,625.538452 794.889893,649.418396 798.204834,676.204834 
	C804.171265,724.416748 788.618042,766.285767 758.476013,803.123047 
	C723.134705,846.314331 677.383301,873.528442 623.943726,888.452332 
	C595.978882,896.261963 567.468811,899.859802 538.505493,898.986816 
	C486.937714,897.432373 438.777130,883.174683 393.526245,858.725281 
	C349.663361,835.025879 312.108124,803.818420 282.125671,763.863525 
	C251.344818,722.844666 231.383316,677.177673 225.006378,626.062012 
	C222.571777,606.546936 222.371567,586.885498 224.475922,567.261841 
	C224.680405,565.355042 224.503235,563.407349 224.503235,560.386597 
	C213.138168,571.147888 206.551270,584.025757 198.485291,596.230774 
	C187.799057,561.842041 191.391495,527.840942 200.381958,493.528503 
M334.475800,250.951523 
	C346.358459,257.724396 357.384247,265.568329 367.393524,276.836456 
	C310.350494,289.879303 262.283600,316.106384 225.888641,361.757721 
	C246.746246,357.659851 267.149841,358.139709 287.113770,364.201721 
	C287.432404,366.123566 286.556061,366.748260 285.863159,367.430298 
	C264.147766,388.805786 246.994110,413.475403 233.480637,440.681671 
	C216.338013,475.194427 204.995926,511.355286 203.419556,550.168823 
	C203.233826,554.742004 203.450287,559.263733 204.968628,564.414368 
	C215.385895,551.263123 226.339249,539.749390 240.099777,531.059082 
	C241.596039,533.455139 240.916260,534.884094 240.649277,536.330566 
	C235.299072,565.316223 233.444382,594.402527 237.138489,623.793884 
	C242.629700,667.483337 258.439270,707.163269 283.010040,743.457764 
	C311.850525,786.059326 349.250580,819.397217 394.036743,844.457703 
	C450.850220,876.248291 511.244751,892.027954 576.759216,884.917603 
	C609.735657,881.338623 641.155945,872.614014 670.690369,857.533508 
	C712.274963,836.300049 746.901794,807.374939 769.289368,765.602356 
	C785.961426,734.494385 792.534424,701.558350 784.531616,666.621826 
	C777.360901,635.317749 761.357361,610.141785 732.619690,594.201660 
	C731.156189,593.389893 729.777344,592.220215 727.280884,592.391724 
	C745.246094,618.655945 752.499817,647.201660 749.131592,678.178650 
	C745.826538,708.574158 734.597717,735.776306 714.590332,759.416809 
	C714.015015,740.450623 711.157166,722.467346 699.114685,706.299011 
	C697.165955,712.768494 695.859497,718.453308 693.768066,723.832886 
	C678.749146,762.464478 651.632080,790.481018 616.200806,810.860596 
	C593.830994,823.727478 569.722351,831.362244 543.865540,833.576721 
	C525.129150,835.181396 506.639587,834.092957 488.206177,830.699036 
	C484.724548,830.058044 483.231628,828.972534 484.828522,825.073059 
	C496.148041,797.432190 495.356079,769.465698 486.249146,741.510803 
	C479.159302,719.747437 467.188141,700.501648 454.359985,681.743286 
	C442.978851,665.100769 431.583160,648.467896 422.797455,630.221924 
	C403.082489,589.278198 395.384277,546.815796 407.696136,502.238037 
	C418.096741,464.580505 439.258209,434.604736 473.390076,414.562714 
	C478.015961,411.846405 482.827515,409.446259 488.226074,406.537079 
	C475.239136,400.302521 462.850128,394.585602 454.995789,382.632629 
	C456.731781,381.242188 457.962769,382.039001 459.189758,382.418518 
	C469.859528,385.718811 480.366180,389.508667 490.644348,393.847595 
	C505.235687,400.007294 518.503357,408.144989 528.388611,420.941925 
	C533.306396,427.308167 536.529236,434.569427 539.243469,442.222382 
	C540.812683,441.843994 541.968323,441.705414 543.015564,441.292145 
	C567.649292,431.570740 593.056335,425.269470 619.549072,423.428436 
	C650.849121,421.253387 680.684753,426.156921 708.287842,441.621338 
	C721.985779,449.295502 733.795898,459.236298 741.840881,473.016937 
	C743.745605,476.279633 745.068970,479.881683 746.707825,483.431549 
	C749.150269,483.352417 751.034668,482.309448 752.880676,481.204926 
	C761.815857,475.858826 769.779968,469.341736 776.572205,461.429260 
	C781.580383,455.595154 781.569092,455.585480 787.080383,461.211853 
	C792.615112,466.862152 792.660095,466.862915 796.990417,460.237793 
	C797.718811,459.123291 798.386292,457.966278 799.035461,456.803009 
	C815.416443,427.446533 810.218079,393.179932 790.613953,367.105133 
	C790.112793,366.438660 789.546570,365.817291 788.297302,365.884277 
	C785.917847,367.845856 783.273499,369.869110 780.820190,372.102203 
	C779.131836,373.638916 777.435242,373.928558 775.333435,373.229309 
	C754.631897,366.342346 734.807007,357.742340 718.535706,342.716919 
	C709.495667,334.368958 702.032593,325.003357 700.288574,312.050995 
	C699.398804,305.443024 696.410583,299.351868 692.961914,293.575287 
	C683.420471,277.593353 669.083984,267.418976 652.463867,259.999359 
	C650.145081,258.964172 648.165100,257.838593 646.942261,255.320572 
	C628.184326,216.694687 599.151245,187.990341 561.738342,167.437775 
	C558.631470,165.731049 555.643799,163.681046 551.521362,162.845108 
	C555.217834,170.986542 558.991455,178.440872 561.334839,186.440369 
	C563.631592,194.280685 566.822083,201.988312 566.464050,210.362289 
	C564.058533,210.958664 562.755859,209.675873 561.304871,208.993591 
	C525.575806,192.193130 489.786530,175.518188 454.162415,158.497650 
	C422.258514,143.254562 390.805939,127.182770 363.469360,104.259209 
	C362.458832,103.411797 361.509064,102.072517 359.719452,102.388123 
	C360.231842,105.916908 361.355591,109.027489 362.646851,112.097481 
	C374.272339,139.737793 392.486023,162.799469 412.898926,184.315323 
	C437.246002,209.977966 465.297150,231.103027 494.511230,250.803360 
	C496.478180,252.129776 499.107208,252.902573 500.040588,256.374146 
	C472.442413,260.028412 445.741333,265.882660 422.961182,285.243683 
	C451.945496,291.251953 476.103851,303.678131 497.191864,324.669464 
	C489.265625,326.075378 482.898163,327.142151 476.555420,328.339874 
	C429.222473,337.278137 389.027588,359.397491 357.513031,395.725800 
	C317.191711,442.206177 298.058960,497.230103 296.396881,558.387512 
	C295.622528,586.880737 300.267944,614.769226 308.638214,642.020813 
	C308.987885,643.159180 310.064819,644.389771 308.433868,645.559814 
	C308.020569,645.223633 307.531494,644.996704 307.311371,644.614807 
	C306.647736,643.463440 306.064606,642.263245 305.492493,641.061951 
	C292.375183,613.518372 286.348358,584.268860 286.130157,553.982910 
	C285.863556,516.977234 294.319458,481.660278 309.776917,448.085236 
	C339.701965,383.085052 388.170074,339.387970 457.660187,320.026672 
	C461.090210,319.071014 464.541626,318.191956 468.908508,317.031250 
	C447.450317,302.071259 424.227264,296.211334 399.256561,294.355469 
	C416.309357,268.983337 441.403931,256.522186 470.561279,249.204559 
	C463.573334,243.855713 457.369385,239.363617 451.470184,234.501694 
	C447.506073,231.234573 443.239655,229.241425 438.195618,228.122635 
	C401.992798,220.092743 365.852661,220.093796 329.735474,228.493942 
	C320.721008,230.590530 311.878723,233.280853 302.116089,237.272263 
	C313.747528,241.239517 324.175842,245.044678 334.475800,250.951523 
M515.332581,738.085876 
	C534.160583,744.567200 553.457458,746.968445 573.315002,745.043030 
	C577.182678,744.668091 577.875244,743.346558 577.063171,739.629517 
	C571.234436,712.949768 558.963745,689.403809 543.001038,667.498657 
	C539.973755,663.344360 537.174377,662.332031 532.217102,663.499268 
	C507.181885,669.394104 482.401733,668.198486 458.016907,659.836060 
	C456.736877,659.397034 455.402863,658.557312 453.646912,659.514038 
	C454.687958,661.058289 455.598816,662.422668 456.522797,663.778076 
	C468.052856,680.691467 480.824127,697.062744 488.337433,716.147156 
	C493.040619,728.093628 501.386688,733.372437 512.232117,737.013977 
	C513.020874,737.278748 513.808044,737.548401 515.332581,738.085876 
M418.677032,584.870728 
	C422.958130,602.447083 429.865662,618.973267 438.476837,634.842407 
	C440.062653,637.764893 442.178802,639.769592 445.109131,641.291626 
	C468.315948,653.345764 492.930389,656.982056 518.714050,653.849243 
	C522.094177,653.438538 525.540466,653.303467 529.211975,651.433472 
	C525.735718,647.526855 522.598450,643.902100 519.355896,640.374084 
	C502.962677,622.537842 487.309998,604.194336 478.753174,581.011047 
	C477.683380,578.112671 475.391510,577.716919 472.834930,577.337097 
	C452.424377,574.304443 434.142365,566.574585 418.641907,552.705872 
	C417.502380,551.686340 416.608856,549.967163 414.279907,550.545349 
	C413.992920,561.937866 416.283539,572.994507 418.677032,584.870728 
M502.663147,805.942078 
	C501.641113,810.594604 500.619110,815.247070 499.632812,819.737000 
	C500.294037,820.165710 500.551910,820.463196 500.846222,820.505066 
	C524.882690,823.926147 548.627930,822.711731 572.081299,816.205200 
	C575.233704,815.330688 576.068420,813.261780 576.797302,810.531067 
	C580.926941,795.058594 581.346680,779.300354 580.671631,763.443665 
	C580.421143,757.559143 579.886902,756.837463 573.754089,757.325745 
	C560.394653,758.389526 547.152405,757.670410 533.975952,755.404663 
	C522.481567,753.428162 511.427399,749.877991 499.714905,745.059692 
	C505.214478,765.448486 506.599945,785.173462 502.663147,805.942078 
M439.340179,553.136902 
	C449.734802,559.145447 460.633179,563.615967 472.682495,564.718994 
	C473.658966,562.123230 472.852203,560.160706 472.542419,558.273376 
	C469.147491,537.588257 469.675629,517.189514 476.961304,497.315796 
	C478.037689,494.379578 476.706146,493.064178 474.777954,491.520752 
	C462.749695,481.892395 454.511017,469.643433 449.674744,455.050323 
	C449.281311,453.863098 449.223389,452.370392 447.399628,451.826904 
	C446.457031,452.858948 445.391144,453.892273 444.477661,455.046204 
	C428.410004,475.344055 418.926849,498.409424 415.075287,523.966675 
	C414.408752,528.389587 415.400421,531.469360 418.146332,534.796204 
	C424.044647,541.942444 430.877106,547.901184 439.340179,553.136902 
M478.747620,425.282715 
	C472.610321,428.699310 467.052948,432.935669 461.579132,437.306061 
	C459.265747,439.153107 458.449127,441.095490 459.117035,444.200562 
	C461.629364,455.879791 466.705444,466.200226 474.770233,474.979889 
	C477.276642,477.708405 479.531342,480.930084 483.283783,482.033173 
	C483.784271,481.652588 484.140015,481.507965 484.296967,481.244781 
	C493.937073,465.077545 507.151001,452.740570 524.001892,444.361389 
	C526.803772,442.968109 526.273560,441.134399 525.351440,439.007843 
	C521.404419,429.905853 515.209229,422.703430 507.196014,416.886627 
	C504.407532,414.862488 501.928772,414.680054 498.870483,415.938568 
	C492.246521,418.664337 485.553955,421.219116 478.747620,425.282715 
z"/>
<path fill="#000000" opacity="1.000000" stroke="none" 
	d="
M599.544922,298.492004 
	C597.305237,295.873932 594.863586,293.834320 593.135864,289.756805 
	C610.897461,291.354584 626.793213,295.809509 641.207642,304.702454 
	C661.445190,317.187866 673.824768,335.859009 682.225708,357.601593 
	C679.721008,359.187592 678.169067,357.678192 676.725403,356.861633 
	C669.856262,352.976135 662.623535,351.725311 654.700684,351.922089 
	C638.435547,352.326019 624.101379,347.494873 614.127686,333.697815 
	C608.772278,326.289368 605.786926,317.814636 604.673462,308.754669 
	C604.185364,304.783630 602.974609,301.329163 599.544922,298.492004 
M645.158752,339.551086 
	C649.694397,339.653107 654.261658,340.314606 659.377014,339.002960 
	C648.970642,322.966095 635.263306,312.473969 617.213013,307.026520 
	C616.808167,322.720978 627.150391,334.758148 645.158752,339.551086 
z"/>
<path fill="#000000" opacity="1.000000" stroke="none" 
	d="
M752.941040,404.026794 
	C759.986450,403.926849 766.627930,403.891113 773.269470,403.871185 
	C775.273743,403.865173 777.459106,403.718018 778.511108,405.888885 
	C781.625305,412.315369 783.458557,419.115692 784.581055,425.816589 
	C783.048828,427.136566 782.240173,426.356354 781.442200,425.834961 
	C772.268860,419.841309 763.081055,413.868958 753.969910,407.781891 
	C752.854858,407.036926 749.807068,406.541931 752.941040,404.026794 
z"/>
</svg>